<?xml version="1.0" encoding="UTF-8"?>
<!-- Generator: visioncortex VTracer 0.6.3 -->
<svg version="1.1" xmlns="http://www.w3.org/2000/svg" width="1280" height="189">
<path d="M0 0 C11.22 0 22.44 0 34 0 C37.65 6.57 41.22 13.15 44.69 19.81 C45.47 21.32 45.47 21.32 46.27 22.85 C50.05 30.11 53.73 37.42 57.36 44.75 C60.04 50.12 62.8 55.45 65.62 60.75 C70.99 70.82 76.05 81.04 81.12 91.27 C85.58 100.27 90.23 109.16 95 118 C95.99 118 96.98 118 98 118 C98.29 117.39 98.57 116.78 98.87 116.16 C104.35 104.54 109.94 93.02 116.02 81.7 C117.72 78.54 119.35 75.34 120.94 72.12 C122.95 68.05 125.03 64.03 127.17 60.02 C133.08 48.91 138.7 37.66 144.29 26.38 C147.66 19.6 151.09 12.87 154.76 6.25 C155.9 4.19 156.96 2.11 158 0 C162.66 -0.05 167.33 -0.09 171.99 -0.11 C173.58 -0.12 175.16 -0.13 176.75 -0.15 C179.03 -0.18 181.31 -0.19 183.59 -0.2 C184.3 -0.21 185.01 -0.22 185.74 -0.23 C187.5 -0.23 189.25 -0.12 191 0 C193.44 2.44 193.24 3.72 193.26 7.05 C193.25 7.75 193.25 8.46 193.24 9.19 C193.24 9.94 193.24 10.69 193.25 11.46 C193.25 13.98 193.24 16.5 193.23 19.03 C193.23 20.83 193.23 22.63 193.23 24.44 C193.23 29.34 193.22 34.25 193.2 39.16 C193.19 44.28 193.19 49.4 193.19 54.53 C193.18 64.23 193.16 73.94 193.14 83.65 C193.12 94.7 193.11 105.75 193.1 116.8 C193.08 139.53 193.04 162.27 193 185 C188.77 187.11 183.21 186.23 178.56 186.25 C177.4 186.27 176.25 186.29 175.05 186.31 C173.39 186.32 173.39 186.32 171.69 186.33 C170.67 186.34 169.65 186.35 168.6 186.36 C166 186 166 186 164.36 184.8 C162.53 182.38 162.63 180.87 162.64 177.86 C162.63 176.26 162.63 176.26 162.63 174.63 C162.64 173.46 162.65 172.3 162.66 171.09 C162.66 169.86 162.66 168.63 162.66 167.37 C162.66 164 162.67 160.62 162.7 157.25 C162.71 153.73 162.72 150.21 162.72 146.68 C162.73 140.01 162.75 133.34 162.78 126.67 C162.82 119.07 162.83 111.47 162.85 103.88 C162.88 88.25 162.93 72.63 163 57 C159.41 59.4 158.29 61.98 156.5 65.75 C155.79 67.21 155.08 68.66 154.37 70.12 C153.99 70.91 153.61 71.69 153.21 72.5 C151.05 76.96 148.84 81.38 146.62 85.81 C146.01 87.05 146.01 87.05 145.38 88.32 C142.45 94.21 139.41 100.04 136.33 105.86 C132.67 112.78 129.08 119.73 125.54 126.72 C125.08 127.61 124.63 128.49 124.17 129.41 C122.33 133.04 120.48 136.67 118.65 140.3 C117.28 143 115.91 145.71 114.54 148.41 C114.12 149.23 113.71 150.05 113.29 150.9 C112.9 151.66 112.51 152.41 112.11 153.2 C111.61 154.19 111.61 154.19 111.09 155.21 C109.92 157.14 108.71 158.53 107 160 C103.74 160.68 100.45 160.56 97.12 160.56 C95.78 160.62 95.78 160.62 94.4 160.67 C89.87 160.7 87.73 160.63 84.21 157.6 C83.09 155.94 83.09 155.94 82 154 C81.58 153.27 81.16 152.54 80.73 151.79 C79.28 149.15 77.92 146.49 76.56 143.81 C75.49 141.73 74.43 139.65 73.36 137.57 C72.53 135.95 72.53 135.95 71.69 134.29 C69.48 129.99 67.25 125.7 65.02 121.41 C62.98 117.49 60.95 113.56 58.92 109.63 C56.8 105.53 54.67 101.44 52.53 97.36 C50.95 94.32 49.37 91.28 47.79 88.24 C47.02 86.75 46.24 85.27 45.46 83.79 C44.38 81.71 43.3 79.64 42.23 77.56 C41.9 76.94 41.57 76.32 41.23 75.68 C39.8 72.9 39 71.18 39 68 C38.34 68 37.68 68 37 68 C35.35 64.7 33.7 61.4 32 58 C31.34 58 30.68 58 30 58 C30 58.64 30.01 59.28 30.01 59.94 C30.07 75.54 30.12 91.14 30.16 106.74 C30.17 114.28 30.19 121.82 30.23 129.37 C30.26 135.94 30.28 142.51 30.28 149.09 C30.29 152.57 30.3 156.05 30.32 159.53 C30.34 163.42 30.34 167.3 30.34 171.18 C30.35 172.34 30.36 173.5 30.37 174.69 C30.37 176.28 30.37 176.28 30.36 177.89 C30.36 178.81 30.37 179.73 30.37 180.68 C29.93 183.46 29.25 184.35 27 186 C24.41 186.39 24.41 186.39 21.34 186.4 C19.69 186.4 19.69 186.4 18 186.41 C16.84 186.4 15.69 186.39 14.5 186.38 C13.35 186.39 12.19 186.4 11 186.41 C9.9 186.41 8.79 186.4 7.66 186.4 C6.64 186.4 5.63 186.39 4.59 186.39 C2 186 2 186 0.36 184.93 C-1.67 182.05 -1.41 179.18 -1.37 175.78 C-1.37 175.04 -1.37 174.3 -1.38 173.54 C-1.38 171.05 -1.37 168.56 -1.36 166.08 C-1.36 164.3 -1.36 162.52 -1.36 160.73 C-1.37 155.89 -1.35 151.05 -1.34 146.21 C-1.32 141.15 -1.32 136.1 -1.32 131.04 C-1.32 122.54 -1.3 114.05 -1.28 105.55 C-1.25 94.64 -1.24 83.72 -1.24 72.81 C-1.23 63.44 -1.22 54.07 -1.21 44.7 C-1.2 41.68 -1.2 38.66 -1.2 35.64 C-1.19 30.9 -1.18 26.17 -1.17 21.43 C-1.16 19.69 -1.16 17.95 -1.16 16.2 C-1.16 13.83 -1.15 11.46 -1.14 9.09 C-1.14 8.4 -1.14 7.7 -1.14 6.98 C-1.11 2.23 -1.11 2.23 0 0 Z " fill="#5A1B87" transform="translate(686,0)"/>
<path d="M0 0 C7.51 -0.05 15.02 -0.09 22.53 -0.11 C25.09 -0.12 27.65 -0.13 30.21 -0.15 C33.87 -0.18 37.54 -0.19 41.21 -0.2 C42.93 -0.21 42.93 -0.21 44.69 -0.23 C46.28 -0.23 46.28 -0.23 47.91 -0.23 C48.84 -0.23 49.78 -0.24 50.75 -0.24 C53 -0 53 -0 55 2 C55.2 4.87 55.28 7.63 55.25 10.5 C55.26 11.68 55.26 11.68 55.27 12.88 C55.25 18.75 55.25 18.75 53 21 C50.41 21.15 47.96 21.19 45.38 21.12 C41.72 21.06 41.72 21.06 38 21 C38.5 28.92 38.5 28.92 39 37 C44.45 36.22 48.82 35.17 53.85 33.23 C54.58 32.96 55.32 32.68 56.07 32.4 C58.4 31.52 60.73 30.64 63.06 29.75 C64.6 29.17 66.13 28.59 67.67 28.01 C68.42 27.73 69.18 27.44 69.95 27.15 C72.93 26.03 75.9 24.91 78.88 23.8 C80.27 23.27 81.66 22.75 83.05 22.22 C84.95 21.49 86.85 20.79 88.75 20.08 C90.35 19.47 90.35 19.47 91.98 18.86 C95.16 17.95 97.71 17.75 101 18 C103.08 19.24 103.08 19.24 104.81 20.88 C105.4 21.41 105.98 21.94 106.58 22.49 C109.63 25.74 109.13 29.09 109.11 33.3 C109.11 34.05 109.11 34.8 109.11 35.57 C109.11 38.06 109.11 40.55 109.1 43.04 C109.1 44.76 109.09 46.49 109.09 48.21 C109.09 52.75 109.08 57.29 109.07 61.83 C109.06 66.46 109.05 71.09 109.05 75.73 C109.04 84.82 109.02 93.91 109 103 C109.89 102.97 110.78 102.93 111.7 102.89 C112.87 102.87 114.04 102.84 115.25 102.81 C116.99 102.76 116.99 102.76 118.77 102.71 C122.24 103.02 123.57 103.56 126 106 C126.47 107.98 126.47 107.98 126.43 110.2 C126.42 110.99 126.41 111.79 126.4 112.61 C126.37 113.44 126.34 114.27 126.31 115.12 C126.3 115.96 126.29 116.8 126.28 117.66 C126.17 123.83 126.17 123.83 125 125 C123.39 125.11 121.77 125.15 120.16 125.16 C118.61 125.18 118.61 125.18 117.04 125.19 C115.91 125.19 114.79 125.2 113.63 125.2 C112.49 125.21 111.34 125.21 110.16 125.22 C107.73 125.23 105.3 125.24 102.87 125.24 C99.15 125.25 95.42 125.28 91.7 125.31 C89.34 125.32 86.99 125.32 84.63 125.33 C82.95 125.35 82.95 125.35 81.24 125.37 C80.2 125.36 79.17 125.36 78.1 125.36 C77.18 125.36 76.27 125.36 75.33 125.37 C73 125 73 125 71.21 123.69 C69.22 120.91 69.53 117.85 69.56 114.56 C69.54 113.24 69.52 111.93 69.5 110.57 C70 107 70 107 74 103 C78.29 103 82.58 103 87 103 C87 84.19 87 65.38 87 46 C72.74 51.22 72.74 51.22 58.49 56.44 C56.7 57.1 54.91 57.75 53.11 58.4 C52.19 58.74 51.26 59.08 50.31 59.43 C49.42 59.76 48.53 60.08 47.61 60.42 C46.45 60.84 46.45 60.84 45.27 61.27 C43 62 43 62 38 63 C38 96 38 129 38 163 C59.82 162.84 59.82 162.84 81.65 162.64 C84.38 162.63 87.12 162.62 89.86 162.61 C90.56 162.6 91.27 162.59 92 162.58 C94.09 162.55 96.19 162.54 98.28 162.55 C99.46 162.54 100.64 162.53 101.86 162.52 C105.68 163.1 107.34 164.22 110 167 C110.46 169.92 110.61 172.17 110.5 175.06 C110.5 175.78 110.51 176.5 110.51 177.24 C110.41 182.33 110.41 182.33 108.95 184.71 C105.95 186.7 102.88 186.41 99.4 186.37 C98.24 186.38 98.24 186.38 97.05 186.38 C94.5 186.39 91.94 186.38 89.38 186.36 C87.61 186.36 85.83 186.36 84.05 186.36 C80.32 186.36 76.6 186.35 72.87 186.34 C68.09 186.31 63.32 186.31 58.55 186.32 C54.88 186.32 51.2 186.32 47.53 186.31 C45.77 186.3 44.01 186.3 42.25 186.3 C39.79 186.3 37.33 186.29 34.86 186.27 C34.14 186.28 33.41 186.28 32.67 186.28 C26.66 186.22 23.02 185.3 18.74 181.08 C14.93 176.33 15.16 171.62 15.23 165.74 C15.21 164.07 15.21 164.07 15.19 162.37 C15.17 158.7 15.18 155.04 15.2 151.38 C15.18 148.83 15.17 146.29 15.15 143.74 C15.12 137.73 15.12 131.73 15.12 125.72 C15.13 118.88 15.1 112.04 15.07 105.2 C15.01 91.13 14.99 77.07 15 63 C8.79 60.69 2.58 58.39 -3.63 56.11 C-5.75 55.33 -7.86 54.55 -9.97 53.76 C-13.01 52.63 -16.04 51.52 -19.08 50.4 C-20.03 50.05 -20.98 49.69 -21.95 49.33 C-22.83 49.01 -23.71 48.69 -24.62 48.36 C-25.4 48.07 -26.17 47.78 -26.97 47.49 C-29.18 46.77 -29.18 46.77 -32 48 C-32 66.15 -32 84.3 -32 103 C-28.04 103 -24.08 103 -20 103 C-16 106 -16 106 -15.53 107.98 C-15.54 108.71 -15.56 109.44 -15.57 110.2 C-15.59 111.39 -15.59 111.39 -15.6 112.61 C-15.63 113.44 -15.66 114.27 -15.69 115.12 C-15.7 116.38 -15.7 116.38 -15.72 117.66 C-15.83 123.83 -15.83 123.83 -17 125 C-18.65 125.1 -20.31 125.13 -21.96 125.13 C-23.02 125.13 -24.08 125.14 -25.17 125.14 C-26.32 125.14 -27.47 125.13 -28.66 125.13 C-30.42 125.13 -30.42 125.13 -32.21 125.14 C-34.69 125.14 -37.18 125.13 -39.66 125.13 C-43.48 125.13 -47.3 125.13 -51.12 125.14 C-53.53 125.14 -55.94 125.13 -58.34 125.13 C-60.07 125.14 -60.07 125.14 -61.83 125.14 C-62.89 125.14 -63.95 125.13 -65.04 125.13 C-66.44 125.13 -66.44 125.13 -67.87 125.13 C-70 125 -70 125 -71 124 C-71.28 120.86 -71.23 117.71 -71.25 114.56 C-71.27 113.68 -71.29 112.79 -71.31 111.88 C-71.32 111.03 -71.32 110.19 -71.33 109.32 C-71.34 108.54 -71.35 107.76 -71.36 106.96 C-71.24 106.31 -71.12 105.66 -71 105 C-67.37 102.58 -65.62 102.79 -61.31 102.88 C-60.13 102.89 -58.95 102.91 -57.74 102.93 C-56.83 102.95 -55.93 102.98 -55 103 C-55.01 102.06 -55.02 101.12 -55.03 100.16 C-55.11 91.3 -55.17 82.44 -55.21 73.58 C-55.23 69.03 -55.26 64.48 -55.3 59.92 C-55.35 55.53 -55.37 51.13 -55.38 46.74 C-55.39 45.06 -55.4 43.38 -55.42 41.71 C-55.45 39.36 -55.46 37.01 -55.45 34.66 C-55.47 33.97 -55.48 33.28 -55.5 32.57 C-55.46 27.61 -54.08 24.83 -51 21 C-47.82 18.42 -45.32 17.61 -41.24 17.69 C-36.11 18.4 -31.31 20.54 -26.5 22.38 C-25.32 22.82 -24.13 23.26 -22.9 23.72 C-19.76 24.9 -16.62 26.08 -13.49 27.27 C-10.28 28.49 -7.07 29.69 -3.85 30.89 C2.44 33.25 8.72 35.62 15 38 C15.33 32.39 15.66 26.78 16 21 C12.6 21.06 12.6 21.06 9.12 21.12 C5.26 21.2 5.26 21.2 2 21 C-1 18 -0.51 14.53 -0.69 10.5 C-0.73 9.71 -0.78 8.93 -0.83 8.12 C-1.14 2.27 -1.14 2.27 0 0 Z M37 61 C38 63 38 63 38 63 Z " fill="#5B1B87" transform="translate(71,0)"/>
<path d="M0 0 C3.51 2.82 6.94 5.68 10 9 C10 9.66 10 10.32 10 11 C11.48 11.5 11.48 11.5 13 12 C23.11 24.41 27.39 38.65 27.25 54.44 C27.26 55.33 27.27 56.23 27.27 57.15 C27.27 58.01 27.27 58.86 27.27 59.75 C27.26 60.52 27.26 61.29 27.26 62.08 C27 64 27 64 25 66 C23.19 66.26 23.19 66.26 20.96 66.28 C19.7 66.3 19.7 66.3 18.41 66.31 C17.48 66.31 16.55 66.32 15.59 66.32 C14.62 66.33 13.64 66.34 12.64 66.35 C9.4 66.38 6.17 66.4 2.93 66.41 C0.69 66.43 -1.55 66.45 -3.79 66.47 C-9.69 66.52 -15.59 66.56 -21.49 66.6 C-27.51 66.64 -33.53 66.69 -39.55 66.74 C-51.37 66.84 -63.18 66.92 -75 67 C-74.7 68.93 -74.39 70.86 -74.08 72.8 C-73.91 73.87 -73.74 74.95 -73.56 76.06 C-72.96 79.23 -72.03 81.76 -70.44 84.56 C-69.04 87.09 -67.92 89.24 -67 92 C-65.15 93.09 -65.15 93.09 -63 94 C-61.74 94.8 -60.49 95.61 -59.25 96.44 C-49.04 102.75 -38.96 103.39 -27.12 101.38 C-19.32 99.26 -13.74 94.42 -9.29 87.83 C-7.93 85.91 -6.84 84.48 -5 83 C-2.5 82.63 -2.5 82.63 0.44 82.64 C1.5 82.64 2.56 82.64 3.65 82.64 C5.31 82.66 5.31 82.66 7 82.69 C8.11 82.68 9.21 82.68 10.35 82.68 C18.6 82.73 18.6 82.73 22 85 C21.75 96.17 13.72 105.06 6.11 112.47 C-8.18 125.79 -24.5 128.95 -43.45 128.39 C-59.32 127.53 -72.18 121.36 -84 111 C-84.64 110.44 -85.28 109.89 -85.94 109.32 C-95.77 100.16 -103.22 86.5 -104 73 C-104.33 73 -104.66 73 -105 73 C-104.97 70.95 -104.93 68.9 -104.9 66.85 C-104.79 64.98 -104.79 64.98 -106 64 C-106.77 48.82 -103.9 30.15 -94 18 C-93.7 17.38 -93.4 16.76 -93.09 16.12 C-86.79 3.84 -71.56 -4.55 -59 -9 C-38.77 -14.36 -17.23 -12.16 0 0 Z M-67.92 26.14 C-71.83 31.68 -75 38.12 -75 45 C-51.24 45 -27.48 45 -3 45 C-3 42.36 -3 39.72 -3 37 C-3.66 37 -4.32 37 -5 37 C-4.51 35.52 -4.51 35.52 -4 34 C-4.66 34 -5.32 34 -6 34 C-6.06 33.32 -6.12 32.64 -6.19 31.94 C-7.73 26.35 -10.93 22.44 -15.75 19.25 C-32.16 10.04 -54.83 11.56 -67.92 26.14 Z M-104 45 C-103 48 -103 48 -103 48 Z M-105 55 C-105 57.64 -105 60.28 -105 63 C-104.67 63 -104.34 63 -104 63 C-104 60.36 -104 57.72 -104 55 C-104.33 55 -104.66 55 -105 55 Z " fill="#5A1B87" transform="translate(1156,61)"/>
<path d="M0 0 C13.42 11.47 21.34 26.15 23.31 43.75 C24.23 56.91 24.23 56.91 21.31 62.75 C-28.19 63.25 -28.19 63.25 -78.69 63.75 C-77.85 71.84 -77.85 71.84 -75.38 79 C-74.97 79.97 -74.56 80.95 -74.14 81.95 C-70.6 88.78 -65.7 93.2 -58.58 95.95 C-47.21 99.54 -35.84 100.65 -24.69 95.75 C-21.86 93.99 -21.86 93.99 -19.69 91.75 C-18.42 90.57 -18.42 90.57 -17.12 89.38 C-14.62 86.67 -12.71 83.82 -10.69 80.75 C-6.58 78.69 -1.27 79.52 3.25 79.5 C4.36 79.48 5.47 79.46 6.62 79.44 C7.68 79.43 8.74 79.43 9.84 79.42 C10.82 79.41 11.79 79.4 12.8 79.39 C15.31 79.75 15.31 79.75 17.16 81.12 C18.31 82.75 18.31 82.75 18.16 85.11 C13.39 100 0.99 112.28 -12.56 119.56 C-22.69 124.15 -32.42 125.18 -43.44 124.94 C-44.62 124.92 -45.81 124.91 -47.03 124.9 C-49.92 124.86 -52.8 124.81 -55.69 124.75 C-55.69 124.09 -55.69 123.43 -55.69 122.75 C-56.6 122.85 -57.5 122.96 -58.44 123.06 C-70.97 122.99 -82.26 113.16 -90.88 105.06 C-98.93 96.72 -104.49 86.87 -107.69 75.75 C-107.91 75.02 -108.14 74.3 -108.37 73.55 C-113.48 53.53 -108.69 32.33 -98.65 14.75 C-96.1 10.85 -93.16 8.04 -89.5 5.19 C-86.49 2.99 -86.49 2.99 -85.69 -0.25 C-83.62 -1.68 -81.63 -2.91 -79.44 -4.12 C-78.81 -4.48 -78.19 -4.83 -77.55 -5.19 C-52 -19.16 -23.14 -18.05 0 0 Z M-71.47 22.86 C-75.52 28.64 -78.69 34.57 -78.69 41.75 C-55.26 41.75 -31.83 41.75 -7.69 41.75 C-7.69 33.58 -9.2 27 -14.48 20.56 C-23.5 12.19 -33.67 10.26 -45.57 10.47 C-55.15 10.91 -65.22 15.48 -71.47 22.86 Z M-6.69 39.75 C-5.69 41.75 -5.69 41.75 -5.69 41.75 Z M-108.69 48.75 C-107.69 52.75 -107.69 52.75 -107.69 52.75 Z M-108.69 59.75 C-108.69 61.73 -108.69 63.71 -108.69 65.75 C-108.36 65.75 -108.03 65.75 -107.69 65.75 C-107.69 63.77 -107.69 61.79 -107.69 59.75 C-108.02 59.75 -108.35 59.75 -108.69 59.75 Z " fill="#5A1B86" transform="translate(1011.6875,64.25)"/>
<path d="M0 0 C4.05 3.12 6.88 5.4 9.16 9.98 C10.65 10.47 10.65 10.47 12.16 10.98 C23.55 25.77 27.86 43.52 26.16 61.98 C24.16 64.98 24.16 64.98 22.36 65.36 C21.62 65.37 20.89 65.37 20.13 65.38 C19.28 65.39 18.44 65.4 17.57 65.41 C16.64 65.41 15.71 65.41 14.76 65.41 C13.78 65.42 12.81 65.43 11.8 65.44 C8.57 65.47 5.33 65.48 2.09 65.49 C-0.15 65.51 -2.38 65.52 -4.62 65.54 C-10.53 65.59 -16.43 65.62 -22.33 65.65 C-28.35 65.68 -34.37 65.72 -40.39 65.77 C-52.2 65.85 -64.02 65.92 -75.84 65.98 C-75.84 76.21 -71.41 86.14 -64.39 93.5 C-56.53 100.05 -44.76 101.67 -34.87 101.29 C-26.62 100.43 -19.77 97.92 -13.84 91.98 C-12.11 89.66 -10.55 87.31 -9.06 84.83 C-7.84 82.98 -7.84 82.98 -5.84 81.98 C-1.86 81.71 2.12 81.74 6.1 81.73 C7.21 81.71 8.32 81.69 9.47 81.66 C10.53 81.66 11.6 81.65 12.69 81.65 C13.67 81.64 14.65 81.63 15.65 81.62 C18.16 81.98 18.16 81.98 20.02 83.35 C21.16 84.98 21.16 84.98 21.01 87.34 C16.08 102.73 3.71 114.27 -10.19 121.68 C-20.2 126.58 -29.33 127.26 -40.4 127.1 C-41.6 127.09 -42.8 127.08 -44.03 127.07 C-46.97 127.05 -49.9 127.02 -52.84 126.98 C-52.84 126.32 -52.84 125.66 -52.84 124.98 C-53.85 125.03 -54.86 125.08 -55.91 125.13 C-66.65 124.71 -76.17 118.03 -83.84 110.98 C-84.61 110.3 -85.38 109.62 -86.17 108.92 C-95.07 100.64 -101 90.77 -103.84 78.98 C-104.21 77.9 -104.58 76.83 -104.96 75.73 C-110.77 57.47 -106.25 37.9 -97.83 21.38 C-91.96 10.29 -91.96 10.29 -86.84 7.98 C-85.79 6.68 -84.8 5.34 -83.84 3.98 C-80.63 0.31 -76.92 -1.87 -72.65 -4.09 C-71.98 -4.44 -71.31 -4.79 -70.63 -5.15 C-47.87 -16.88 -20.76 -14.81 0 0 Z M-68.62 25.08 C-72.67 30.86 -75.84 36.8 -75.84 43.98 C-52.41 43.98 -28.98 43.98 -4.84 43.98 C-5.8 34.35 -6.87 27.28 -14.09 20.6 C-29.69 8.55 -55.51 9.62 -68.62 25.08 Z M-3.84 41.98 C-2.84 43.98 -2.84 43.98 -2.84 43.98 Z M-105.84 48.98 C-104.84 50.98 -104.84 50.98 -104.84 50.98 Z M-105.84 51.98 C-104.84 55.98 -104.84 55.98 -104.84 55.98 Z M-105.84 61.98 C-105.84 63.63 -105.84 65.28 -105.84 66.98 C-105.51 66.98 -105.18 66.98 -104.84 66.98 C-104.84 65.33 -104.84 63.68 -104.84 61.98 C-105.17 61.98 -105.5 61.98 -105.84 61.98 Z " fill="#5A1B86" transform="translate(501.8359375,62.0234375)"/>
<path d="M0 0 C1.12 -0.06 2.25 -0.13 3.41 -0.19 C11.52 -0.35 11.52 -0.35 14.96 2.07 C16.81 4.13 18.31 6.23 19.81 8.56 C20.32 9.27 20.83 9.98 21.35 10.71 C22.92 12.93 24.43 15.17 25.94 17.44 C31.07 25.05 36.34 32.54 41.76 39.95 C42.28 40.66 42.8 41.37 43.33 42.1 C44.01 43.03 44.01 43.03 44.71 43.98 C45.81 45.56 45.81 45.56 46.81 47.56 C48.13 47.56 49.45 47.56 50.81 47.56 C52.37 46.08 52.37 46.08 53.62 44 C54.39 42.85 54.39 42.85 55.18 41.67 C55.72 40.83 56.26 39.99 56.81 39.12 C57.97 37.38 59.13 35.63 60.29 33.88 C60.87 32.99 61.46 32.1 62.06 31.19 C64.69 27.24 67.43 23.37 70.19 19.5 C71.17 18.11 72.16 16.73 73.14 15.34 C73.6 14.7 74.05 14.06 74.52 13.39 C76.89 10.04 79.2 6.65 81.51 3.25 C82.81 1.56 82.81 1.56 84.81 0.56 C88.95 0.32 93.1 0.38 97.25 0.38 C98.41 0.36 99.57 0.35 100.76 0.34 C102.42 0.33 102.42 0.33 104.12 0.33 C105.14 0.33 106.16 0.32 107.21 0.32 C109.81 0.56 109.81 0.56 112.81 2.56 C112.44 8.03 109.17 11.6 106 15.81 C104.81 17.43 103.61 19.05 102.42 20.67 C101.81 21.49 101.21 22.31 100.58 23.15 C97.94 26.75 95.37 30.4 92.81 34.06 C87.99 40.92 83.11 47.72 78.18 54.5 C77.17 55.89 76.17 57.28 75.18 58.67 C74.3 59.88 73.41 61.07 72.48 62.24 C71.14 63.91 71.14 63.91 69.81 66.56 C70.64 71.3 74.34 75.4 77.12 79.25 C77.65 79.99 78.18 80.72 78.72 81.48 C81.56 85.45 84.42 89.41 87.29 93.36 C87.85 94.15 88.42 94.94 89.01 95.75 C90.09 97.24 91.18 98.74 92.27 100.23 C94.97 103.94 97.61 107.68 100.2 111.47 C100.7 112.2 101.2 112.94 101.72 113.7 C102.81 115.56 102.81 115.56 102.81 117.56 C103.47 117.56 104.13 117.56 104.81 117.56 C106.79 120.05 106.79 120.05 109 123.31 C109.74 124.38 110.47 125.45 111.23 126.55 C112.81 129.56 112.81 129.56 112.41 131.75 C112.21 132.35 112.02 132.95 111.81 133.56 C107.46 133.8 103.11 133.94 98.75 134.06 C97.52 134.13 96.29 134.2 95.03 134.27 C86.16 134.46 86.16 134.46 82.63 132.11 C80.76 130.04 79.3 127.93 77.81 125.56 C77.24 124.76 76.67 123.95 76.08 123.12 C74.21 120.48 72.41 117.81 70.62 115.12 C69.32 113.19 68.01 111.25 66.7 109.31 C66.06 108.35 65.41 107.39 64.74 106.4 C61.84 102.13 58.86 97.9 55.88 93.69 C55.36 92.96 54.85 92.24 54.32 91.49 C53.15 89.85 51.98 88.2 50.81 86.56 C48.35 86.94 47.11 87.24 45.39 89.1 C44.95 89.77 44.52 90.43 44.07 91.11 C43.57 91.87 43.07 92.62 42.55 93.39 C42.02 94.21 41.49 95.03 40.94 95.88 C39.79 97.61 38.63 99.34 37.48 101.07 C36.58 102.42 36.58 102.42 35.67 103.8 C32.62 108.35 29.46 112.83 26.31 117.31 C25.74 118.13 25.16 118.95 24.57 119.8 C23.48 121.35 22.39 122.89 21.27 124.42 C19.78 126.5 19.78 126.5 18.78 128.67 C17.63 130.85 16.8 132.1 14.81 133.56 C10.25 134.5 5.83 134.36 1.19 134.19 C-0.67 134.18 -0.67 134.18 -2.57 134.17 C-11.65 134 -11.65 134 -14.06 132.03 C-14.62 131.3 -14.62 131.3 -15.19 130.56 C-13.52 126.87 -11.24 123.7 -8.88 120.44 C-8.44 119.83 -8 119.22 -7.55 118.6 C-5.08 115.16 -2.59 111.73 -0.09 108.31 C7.25 98.2 14.44 88 21.38 77.6 C22.81 75.56 22.81 75.56 24.37 73.7 C26.04 71.77 26.04 71.77 27.81 68.56 C27.2 62.81 24.26 58.93 20.81 54.5 C19.81 53.18 18.81 51.85 17.82 50.53 C17.31 49.87 16.81 49.21 16.29 48.52 C14.05 45.56 11.9 42.53 9.75 39.5 C8.93 38.34 8.1 37.18 7.28 36.03 C6.87 35.46 6.46 34.88 6.05 34.3 C4.39 31.97 2.73 29.64 1.06 27.31 C0.24 26.15 -0.59 25 -1.41 23.84 C-3.6 20.76 -5.82 17.7 -8.07 14.68 C-8.54 14.04 -9.01 13.4 -9.49 12.75 C-10.4 11.52 -11.31 10.3 -12.23 9.09 C-13.45 7.43 -13.45 7.43 -15.19 4.56 C-14.86 3.57 -14.53 2.58 -14.19 1.56 C-9.98 -0.54 -4.63 0.11 0 0 Z " fill="#5A1B86" transform="translate(545.1875,52.4375)"/>
<path d="M0 0 C1.31 -0.01 2.63 -0.02 3.98 -0.04 C5.23 -0.04 6.49 -0.04 7.78 -0.04 C8.93 -0.05 10.09 -0.05 11.28 -0.06 C14.06 0.19 14.06 0.19 16.06 2.19 C16.31 4.93 16.31 4.93 16.3 8.5 C16.3 9.16 16.31 9.81 16.31 10.49 C16.31 12.69 16.3 14.9 16.29 17.1 C16.29 18.68 16.29 20.26 16.29 21.83 C16.29 26.12 16.28 30.41 16.27 34.7 C16.25 39.18 16.25 43.66 16.25 48.14 C16.24 56.62 16.23 65.11 16.21 73.59 C16.18 83.25 16.17 92.91 16.16 102.57 C16.14 122.44 16.11 142.31 16.06 162.19 C17.07 162.18 18.08 162.17 19.12 162.17 C28.61 162.11 38.1 162.06 47.59 162.03 C52.47 162.02 57.35 162 62.23 161.96 C66.94 161.93 71.64 161.91 76.35 161.9 C78.15 161.9 79.95 161.89 81.74 161.87 C84.26 161.85 86.77 161.85 89.29 161.85 C90.03 161.84 90.78 161.83 91.55 161.81 C96.58 161.84 96.58 161.84 99.03 163.57 C100.43 165.76 100.4 167.27 100.36 169.86 C100.35 170.75 100.34 171.64 100.33 172.56 C100.3 173.49 100.28 174.42 100.25 175.38 C100.23 176.79 100.23 176.79 100.21 178.22 C100.17 180.55 100.12 182.87 100.06 185.19 C97.14 186.02 94.54 186.32 91.5 186.33 C90.14 186.35 90.14 186.35 88.74 186.36 C87.75 186.36 86.76 186.36 85.74 186.36 C84.69 186.37 83.64 186.38 82.56 186.38 C79.09 186.4 75.62 186.42 72.15 186.43 C70.97 186.43 69.78 186.43 68.56 186.44 C62.3 186.46 56.04 186.47 49.78 186.48 C43.3 186.49 36.83 186.53 30.35 186.57 C25.37 186.59 20.4 186.6 15.43 186.61 C13.04 186.61 10.65 186.62 8.26 186.64 C4.92 186.67 1.59 186.66 -1.75 186.66 C-2.74 186.67 -3.73 186.68 -4.75 186.7 C-5.66 186.69 -6.57 186.68 -7.5 186.68 C-8.29 186.68 -9.08 186.68 -9.89 186.68 C-11.94 186.19 -11.94 186.19 -13.69 184.62 C-15.36 181.36 -15.35 178.42 -15.3 174.84 C-15.31 174.1 -15.31 173.36 -15.31 172.59 C-15.32 170.11 -15.31 167.62 -15.29 165.13 C-15.29 163.35 -15.3 161.57 -15.3 159.79 C-15.31 154.95 -15.29 150.11 -15.27 145.27 C-15.26 140.21 -15.26 135.15 -15.26 130.09 C-15.26 121.6 -15.24 113.1 -15.22 104.61 C-15.19 93.69 -15.18 82.78 -15.18 71.86 C-15.17 62.49 -15.16 53.12 -15.14 43.75 C-15.14 40.73 -15.14 37.71 -15.13 34.69 C-15.13 29.96 -15.12 25.22 -15.11 20.49 C-15.1 18.74 -15.1 17 -15.1 15.26 C-15.1 12.89 -15.09 10.52 -15.08 8.15 C-15.08 7.45 -15.08 6.76 -15.08 6.04 C-15.03 -2.94 -7.42 0 0 0 Z " fill="#5B1B87" transform="translate(284.9375,-0.1875)"/>
<path d="M0 0 C1.49 0.06 1.49 0.06 3.01 0.12 C4.09 0.17 5.16 0.21 6.27 0.26 C7.4 0.31 8.53 0.36 9.7 0.41 C11.4 0.48 11.4 0.48 13.13 0.55 C21.57 0.91 21.57 0.91 22.7 2.04 C22.79 4.33 22.81 6.62 22.8 8.92 C22.79 10.17 22.79 11.43 22.79 12.72 C22.78 14.33 22.77 15.94 22.76 17.6 C22.74 22.69 22.72 27.79 22.7 33.04 C34.91 33.04 47.12 33.04 59.7 33.04 C59.7 41.29 59.7 49.54 59.7 58.04 C56.64 59.57 53.42 59.28 50.07 59.35 C49.31 59.37 48.56 59.4 47.79 59.42 C45.38 59.48 42.98 59.54 40.57 59.6 C38.95 59.64 37.32 59.69 35.69 59.73 C31.69 59.84 27.7 59.94 23.7 60.04 C23.65 68.6 23.62 77.16 23.6 85.73 C23.59 89.7 23.57 93.68 23.55 97.66 C23.53 101.5 23.51 105.35 23.51 109.19 C23.51 110.65 23.5 112.11 23.49 113.57 C23.43 121.6 23.65 129.23 25.7 137.04 C33.14 138.91 40.12 139.42 47.77 139.6 C48.62 139.63 49.47 139.66 50.35 139.69 C51.11 139.71 51.88 139.73 52.67 139.75 C54.7 140.04 54.7 140.04 57.7 142.04 C58.04 144.47 58.04 144.47 57.99 147.48 C57.98 148.56 57.97 149.64 57.96 150.74 C57.94 151.87 57.91 153 57.89 154.16 C57.87 155.87 57.87 155.87 57.85 157.6 C57.81 160.42 57.76 163.23 57.7 166.04 C53.65 166.11 49.59 166.17 45.54 166.2 C44.17 166.22 42.79 166.24 41.42 166.26 C27.08 166.53 14.42 164.91 3.44 155 C-4.64 146.56 -7.43 137.18 -7.41 125.68 C-7.41 124.95 -7.41 124.23 -7.41 123.49 C-7.41 121.11 -7.41 118.74 -7.4 116.36 C-7.4 114.71 -7.4 113.06 -7.39 111.41 C-7.39 107.07 -7.38 102.73 -7.37 98.39 C-7.36 93.96 -7.35 89.53 -7.35 85.1 C-7.34 76.41 -7.32 67.72 -7.3 59.04 C-8.15 59.05 -8.15 59.05 -9.01 59.07 C-11.57 59.11 -14.12 59.14 -16.68 59.16 C-17.57 59.18 -18.45 59.2 -19.37 59.21 C-20.65 59.22 -20.65 59.22 -21.95 59.23 C-23.13 59.25 -23.13 59.25 -24.33 59.26 C-26.3 59.04 -26.3 59.04 -28.3 57.04 C-28.62 54.7 -28.62 54.7 -28.71 51.81 C-28.75 50.78 -28.79 49.75 -28.83 48.69 C-28.86 47.61 -28.89 46.53 -28.93 45.41 C-28.96 44.32 -29 43.24 -29.04 42.12 C-29.14 39.42 -29.22 36.73 -29.3 34.04 C-26.9 32.84 -25.41 32.92 -22.73 32.94 C-21.83 32.94 -20.94 32.95 -20.02 32.95 C-18.61 32.96 -18.61 32.96 -17.18 32.98 C-16.23 32.98 -15.29 32.98 -14.31 32.99 C-11.98 33 -9.64 33.02 -7.3 33.04 C-7.25 32.35 -7.2 31.67 -7.15 30.96 C-6.92 27.82 -6.67 24.68 -6.43 21.54 C-6.31 19.92 -6.31 19.92 -6.19 18.27 C-4.75 0.08 -4.75 0.08 0 0 Z M-4.3 9.04 C-4.3 10.69 -4.3 12.34 -4.3 14.04 C-3.97 14.04 -3.64 14.04 -3.3 14.04 C-3.3 12.39 -3.3 10.74 -3.3 9.04 C-3.63 9.04 -3.96 9.04 -4.3 9.04 Z M-6.3 29.04 C-5.3 32.04 -5.3 32.04 -5.3 32.04 Z M-6.3 129.04 C-5.3 133.04 -5.3 133.04 -5.3 133.04 Z " fill="#5B1B87" transform="translate(1220.30078125,19.96240234375)"/>
<path d="M0 0 C2.08 1.24 2.08 1.24 3.81 2.88 C4.4 3.41 4.98 3.94 5.58 4.49 C8.63 7.74 8.13 11.09 8.11 15.3 C8.11 16.05 8.11 16.8 8.11 17.57 C8.11 20.06 8.11 22.55 8.1 25.04 C8.1 26.76 8.09 28.49 8.09 30.21 C8.09 34.75 8.08 39.29 8.07 43.83 C8.06 48.46 8.05 53.09 8.05 57.73 C8.04 66.82 8.02 75.91 8 85 C8.89 84.97 9.78 84.93 10.7 84.89 C11.87 84.87 13.04 84.84 14.25 84.81 C15.99 84.76 15.99 84.76 17.77 84.71 C21.24 85.02 22.57 85.56 25 88 C25.47 89.98 25.47 89.98 25.43 92.2 C25.41 93.39 25.41 93.39 25.4 94.61 C25.36 95.86 25.36 95.86 25.31 97.12 C25.3 97.96 25.29 98.8 25.28 99.66 C25.17 105.83 25.17 105.83 24 107 C22.39 107.11 20.77 107.15 19.16 107.16 C17.61 107.18 17.61 107.18 16.04 107.19 C14.91 107.19 13.79 107.2 12.63 107.2 C11.49 107.21 10.34 107.21 9.16 107.22 C6.73 107.23 4.3 107.24 1.87 107.24 C-1.85 107.25 -5.58 107.28 -9.3 107.31 C-11.66 107.32 -14.01 107.32 -16.37 107.33 C-17.49 107.34 -18.6 107.35 -19.76 107.37 C-20.8 107.36 -21.83 107.36 -22.9 107.36 C-23.82 107.36 -24.73 107.36 -25.67 107.37 C-28 107 -28 107 -29.79 105.69 C-31.78 102.91 -31.47 99.85 -31.44 96.56 C-31.46 95.24 -31.48 93.93 -31.5 92.57 C-31 89 -31 89 -27 85 C-22.71 85 -18.42 85 -14 85 C-14 66.19 -14 47.38 -14 28 C-28.26 33.22 -28.26 33.22 -42.51 38.44 C-44.3 39.1 -46.09 39.75 -47.89 40.4 C-48.81 40.74 -49.74 41.08 -50.69 41.43 C-51.58 41.76 -52.47 42.08 -53.39 42.42 C-54.16 42.7 -54.93 42.98 -55.73 43.27 C-58.13 44.04 -60.52 44.55 -63 45 C-64.81 41.37 -64.23 37.12 -64.25 33.12 C-64.27 32.21 -64.29 31.3 -64.31 30.36 C-64.32 29.48 -64.32 28.6 -64.33 27.7 C-64.34 26.89 -64.35 26.09 -64.36 25.26 C-63.89 22.32 -63.15 21.05 -61 19 C-58.3 18.42 -58.3 18.42 -55 18 C-52.39 17.13 -49.82 16.22 -47.25 15.23 C-46.51 14.96 -45.78 14.68 -45.02 14.4 C-42.68 13.52 -40.34 12.64 -38 11.75 C-36.46 11.17 -34.92 10.59 -33.38 10.01 C-32.62 9.73 -31.87 9.44 -31.09 9.15 C-28.1 8.03 -25.12 6.91 -22.13 5.8 C-20.73 5.27 -19.34 4.75 -17.94 4.22 C-16.05 3.5 -14.15 2.79 -12.25 2.08 C-11.18 1.67 -10.12 1.27 -9.02 0.86 C-5.83 -0.05 -3.29 -0.25 0 0 Z " fill="#F4532D" transform="translate(172,18)"/>
<path d="M0 0 C1.19 0.44 2.37 0.88 3.59 1.34 C6.09 2.27 8.59 3.21 11.08 4.15 C14.28 5.36 17.49 6.56 20.7 7.75 C23.76 8.9 26.82 10.04 29.88 11.19 C31.03 11.62 32.18 12.05 33.37 12.5 C34.43 12.9 35.49 13.3 36.58 13.71 C37.52 14.06 38.45 14.42 39.42 14.78 C41.54 15.66 41.54 15.66 42.54 16.66 C42.7 18.44 42.79 20.22 42.86 22.01 C42.9 23.09 42.94 24.17 42.98 25.28 C43.02 26.42 43.06 27.55 43.1 28.72 C43.14 29.86 43.19 31 43.23 32.18 C43.34 35.01 43.44 37.83 43.54 40.66 C37.18 38.88 30.99 36.77 24.79 34.49 C24.01 34.2 23.23 33.91 22.42 33.62 C19.14 32.41 15.87 31.2 12.6 29.97 C10.19 29.07 7.77 28.19 5.36 27.3 C4.61 27.02 3.87 26.74 3.11 26.45 C-1.11 24.84 -1.11 24.84 -5.46 25.66 C-5.46 43.81 -5.46 61.96 -5.46 80.66 C-1.5 80.66 2.46 80.66 6.54 80.66 C10.54 83.66 10.54 83.66 11.01 85.64 C10.99 86.37 10.98 87.1 10.96 87.86 C10.95 89.05 10.95 89.05 10.94 90.27 C10.91 91.1 10.88 91.93 10.85 92.79 C10.84 94.04 10.84 94.04 10.82 95.32 C10.71 101.49 10.71 101.49 9.54 102.66 C7.89 102.76 6.23 102.79 4.58 102.79 C3.52 102.79 2.46 102.8 1.37 102.8 C0.22 102.8 -0.93 102.8 -2.12 102.79 C-3.88 102.79 -3.88 102.79 -5.67 102.8 C-8.16 102.8 -10.64 102.79 -13.13 102.79 C-16.94 102.79 -20.76 102.79 -24.58 102.8 C-26.99 102.8 -29.4 102.79 -31.8 102.79 C-33.53 102.8 -33.53 102.8 -35.29 102.8 C-36.35 102.8 -37.41 102.79 -38.5 102.79 C-39.9 102.79 -39.9 102.79 -41.34 102.79 C-43.46 102.66 -43.46 102.66 -44.46 101.66 C-44.74 98.52 -44.69 95.37 -44.71 92.22 C-44.73 91.34 -44.75 90.45 -44.77 89.54 C-44.78 88.69 -44.78 87.85 -44.79 86.98 C-44.8 86.2 -44.81 85.42 -44.82 84.62 C-44.7 83.97 -44.58 83.32 -44.46 82.66 C-40.83 80.24 -39.08 80.45 -34.77 80.54 C-33.59 80.55 -32.41 80.57 -31.2 80.59 C-30.3 80.61 -29.39 80.64 -28.46 80.66 C-28.47 79.72 -28.48 78.78 -28.49 77.82 C-28.57 68.96 -28.63 60.1 -28.67 51.24 C-28.69 46.69 -28.72 42.14 -28.76 37.58 C-28.81 33.19 -28.83 28.79 -28.84 24.4 C-28.85 22.72 -28.86 21.04 -28.88 19.37 C-28.91 17.02 -28.92 14.67 -28.92 12.32 C-28.93 11.63 -28.94 10.94 -28.96 10.23 C-28.92 5.27 -27.54 2.5 -24.46 -1.34 C-16.7 -7.63 -8.22 -3.13 0 0 Z " fill="#F3522D" transform="translate(44.4609375,22.33984375)"/>
<path d="M0 0 C2.17 -0.33 2.17 -0.33 4.89 -0.26 C5.91 -0.25 6.93 -0.23 7.98 -0.21 C9.08 -0.18 10.18 -0.14 11.32 -0.11 C13.01 -0.07 13.01 -0.07 14.73 -0.04 C17.12 0.02 19.5 0.08 21.89 0.15 C25.55 0.25 29.22 0.33 32.88 0.41 C35.19 0.46 37.5 0.52 39.82 0.58 C41.47 0.62 41.47 0.62 43.16 0.66 C44.68 0.7 44.68 0.7 46.24 0.75 C47.58 0.78 47.58 0.78 48.96 0.82 C51 1 51 1 52 2 C52.13 4.99 52.19 7.95 52.19 10.94 C52.2 11.77 52.21 12.61 52.22 13.47 C52.23 14.28 52.23 15.08 52.23 15.9 C52.23 16.64 52.24 17.38 52.24 18.14 C52 20 52 20 50 22 C47.92 22.27 47.92 22.27 45.32 22.29 C44.35 22.3 43.38 22.32 42.38 22.33 C41.33 22.33 40.28 22.33 39.19 22.34 C37.57 22.35 37.57 22.35 35.93 22.36 C33.64 22.37 31.36 22.37 29.08 22.37 C25.58 22.37 22.08 22.41 18.58 22.45 C16.37 22.46 14.16 22.46 11.94 22.46 C10.89 22.48 9.84 22.49 8.76 22.5 C7.3 22.5 7.3 22.5 5.81 22.49 C4.95 22.49 4.09 22.49 3.21 22.49 C1 22 1 22 -0.78 20.19 C-2.59 16.93 -2.36 14.13 -2.31 10.44 C-2.32 9.77 -2.32 9.09 -2.32 8.4 C-2.28 4.73 -2.09 3.13 0 0 Z " fill="#5B1C88" transform="translate(18,164)"/>
<path d="M0 0 C15.18 0 30.36 0 46 0 C46 0.33 46 0.66 46 1 C30.82 1 15.64 1 0 1 C0 0.67 0 0.34 0 0 Z " fill="#5A1B86" transform="translate(20,163)"/>
<path d="M0 0 C6.27 0 12.54 0 19 0 C19 0.33 19 0.66 19 1 C12.73 1 6.46 1 0 1 C0 0.67 0 0.34 0 0 Z " fill="#5A1B86" transform="translate(1220,19)"/>
<path d="M0 0 C0.33 0 0.66 0 1 0 C1 5.94 1 11.88 1 18 C0.67 18 0.34 18 0 18 C0 12.06 0 6.12 0 0 Z " fill="#5A1B86" transform="translate(1190,56)"/>
<path d="M0 0 C0.33 0 0.66 0 1 0 C1 3.96 1 7.92 1 12 C0.67 12 0.34 12 0 12 C0 8.04 0 4.08 0 0 Z " fill="#5A1B86" transform="translate(69,4)"/>
<path d="" fill="#5A1B86" transform="translate(0,0)"/>
<path d="" fill="#5A1B86" transform="translate(0,0)"/>
<path d="" fill="#5A1B86" transform="translate(0,0)"/>
<path d="" fill="#5A1B86" transform="translate(0,0)"/>
<path d="" fill="#5A1B86" transform="translate(0,0)"/>
<path d="" fill="#5A1B86" transform="translate(0,0)"/>
<path d="" fill="#5A1B86" transform="translate(0,0)"/>
<path d="" fill="#5A1B86" transform="translate(0,0)"/>
<path d="" fill="#5A1B86" transform="translate(0,0)"/>
<path d="" fill="#5A1B86" transform="translate(0,0)"/>
<path d="" fill="#5A1B86" transform="translate(0,0)"/>
<path d="" fill="#5A1B86" transform="translate(0,0)"/>
<path d="" fill="#5A1B86" transform="translate(0,0)"/>
</svg>
